<?xml version="1.0" encoding="utf-8"?>
<!-- Generator: Adobe Illustrator 23.0.2, SVG Export Plug-In . SVG Version: 6.00 Build 0)  -->
<svg version="1.1" id="Layer_1" xmlns="http://www.w3.org/2000/svg" xmlns:xlink="http://www.w3.org/1999/xlink" x="0px" y="0px"
	 viewBox="0 0 500 500" enable-background="new 0 0 500 500" xml:space="preserve">
<g>
	<path fill="currentColor" d="M289.84,500c-6.07,0-12.15-2.32-16.79-6.95c-9.27-9.27-9.27-24.3,0-33.57l165.61-165.61
		c18.45-18.45,18.45-48.48,0-66.93L273.06,61.34c-18.45-18.45-48.48-18.45-66.93,0L40.52,226.94c-9.27,9.27-24.3,9.27-33.57,0
		c-9.27-9.27-9.27-24.3,0-33.57L172.56,27.77C190.47,9.86,214.27,0,239.59,0s49.13,9.86,67.03,27.77l165.61,165.61
		c17.91,17.91,27.77,41.71,27.77,67.03s-9.86,49.13-27.77,67.03L306.63,493.05C301.99,497.68,295.92,500,289.84,500z"/>
	<g>
		<path fill="currentColor" d="M261.54,203.49V368.8c0,12.31-10.98,22.62-24.28,22.62c-12.64,0-24.28-10.64-24.28-22.62V203.49h-43.91
			c-10.31,0-19.96-10.31-19.96-21.29c0-11.97,8.98-21.62,19.96-21.62h136.38c10.98,0,19.96,9.65,19.96,21.62
			c0,10.98-9.65,21.29-19.96,21.29H261.54z"/>
	</g>
</g>
</svg>
