<svg width="32" height="32" version="1.1" xmlns="http://www.w3.org/2000/svg" xmlns:xlink="http://www.w3.org/1999/xlink" x="0px" y="0px"
	 viewBox="0 0 32 32" enable-background="new 0 0 32 32" xml:space="preserve">
	<path fill-rule="evenodd" clip-rule="evenodd" fill="#FFFFFF" d="M11,4.3H7.7c-1.1,0-2,0.9-2,2v19.3c0,1.1,0.9,2,2,2H11
		c1.1,0,2-0.9,2-2V6.3C13,5.2,12.1,4.3,11,4.3z"/>
	<path fill-rule="evenodd" clip-rule="evenodd" fill="#FFFFFF" d="M24.3,4.3H21c-1.1,0-2,0.9-2,2v19.3c0,1.1,0.9,2,2,2h3.3
		c1.1,0,2-0.9,2-2V6.3C26.3,5.2,25.4,4.3,24.3,4.3z"/>
</svg>
